<svg xmlns="http://www.w3.org/2000/svg" width="1200" height="630" viewBox="0 0 1200 630" preserveAspectRatio="xMidYMid meet" role="img" aria-labelledby="title desc">
  <title id="title">OpenAI Personal AGI opportunity report cover</title>
  <desc id="desc">Job opportunity cover for OpenAI Research Engineer or Research Scientist, Personal AGI, Personality and Model Behavior, with 64 percent fit and Researching status.</desc>
  <defs>
    <linearGradient id="bg" x1="0" y1="0" x2="1" y2="1">
      <stop offset="0%" stop-color="#0F1E4D"/>
      <stop offset="100%" stop-color="#3B82F6"/>
    </linearGradient>
    <linearGradient id="fade" x1="0" y1="0" x2="0" y2="1">
      <stop offset="0%" stop-color="#000000" stop-opacity="0"/>
      <stop offset="100%" stop-color="#000000" stop-opacity="0.25"/>
    </linearGradient>
    <radialGradient id="glow" cx="50%" cy="42%" r="58%">
      <stop offset="0%" stop-color="#FFFFFF" stop-opacity="0.12"/>
      <stop offset="100%" stop-color="#FFFFFF" stop-opacity="0"/>
    </radialGradient>
  </defs>

  <rect width="1200" height="630" fill="url(#bg)"/>
  <rect width="1200" height="630" fill="url(#glow)"/>
  <rect width="1200" height="630" fill="url(#fade)"/>

  <g fill="none" stroke="#FFFFFF" stroke-opacity="0.10">
    <circle cx="165" cy="155" r="108" stroke-width="2"/>
    <circle cx="165" cy="155" r="72" stroke-width="1"/>
    <path d="M0 455 C180 360 245 520 365 430" stroke-width="2"/>
    <circle cx="1045" cy="470" r="130" stroke-width="2"/>
    <circle cx="1045" cy="470" r="88" stroke-width="1"/>
    <path d="M835 110 C970 35 1060 115 1200 58" stroke-width="2"/>
  </g>
  <g fill="#FFFFFF" fill-opacity="0.13">
    <circle cx="110" cy="250" r="5"/><circle cx="215" cy="74" r="4"/><circle cx="1010" cy="92" r="5"/>
    <circle cx="1128" cy="365" r="4"/><circle cx="950" cy="560" r="5"/><circle cx="76" cy="520" r="4"/>
  </g>

  <g font-family="Arial, Helvetica, sans-serif" text-anchor="middle" fill="#FFFFFF">
    <text x="600" y="82" font-size="26" font-weight="700" letter-spacing="7" opacity="0.78">JOB</text>
    <rect x="555" y="101" width="90" height="4" rx="2" fill="#FFFFFF" opacity="0.78"/>

    <text x="600" y="214" font-size="58" font-weight="800" letter-spacing="-1">OpenAI</text>

    <text x="600" y="282" font-size="28" font-weight="600" opacity="0.88">Research Engineer / Research Scientist</text>
    <text x="600" y="320" font-size="28" font-weight="600" opacity="0.88">Personal AGI, Personality and Model Behavior</text>

    <g transform="translate(384,365)">
      <rect x="0" y="0" width="190" height="54" rx="27" fill="#FFFFFF" fill-opacity="0.14" stroke="#FFFFFF" stroke-opacity="0.25"/>
      <circle cx="30" cy="27" r="7" fill="#FBBF24"/>
      <text x="106" y="35" font-size="20" font-weight="700">64% FIT</text>

      <rect x="208" y="0" width="224" height="54" rx="27" fill="#FFFFFF" fill-opacity="0.14" stroke="#FFFFFF" stroke-opacity="0.25"/>
      <circle cx="230" cy="27" r="7" fill="#FBBF24"/>
      <text x="329" y="35" font-size="20" font-weight="700">RESEARCHING</text>
    </g>

    <line x1="300" y1="464" x2="900" y2="464" stroke="#FFFFFF" stroke-opacity="0.30"/>

    <text x="600" y="535" font-size="27" font-weight="800" letter-spacing="0.5">AutoNateAI</text>
    <text x="600" y="568" font-size="18" font-weight="500" letter-spacing="2.1" opacity="0.72">OPPORTUNITY INTELLIGENCE ENGINE</text>
  </g>
</svg>
